<svg width="262" height="30" viewBox="0 0 262 30" fill="none" xmlns="http://www.w3.org/2000/svg">
<path d="M170.763 12.576V14.22H167.331V15.996H169.899V17.592H167.331V21H165.279V12.576H170.763ZM171.434 17.64C171.434 16.952 171.562 16.348 171.818 15.828C172.082 15.308 172.438 14.908 172.886 14.628C173.334 14.348 173.834 14.208 174.386 14.208C174.858 14.208 175.27 14.304 175.622 14.496C175.982 14.688 176.258 14.94 176.45 15.252V14.304H178.502V21H176.45V20.052C176.25 20.364 175.97 20.616 175.61 20.808C175.258 21 174.846 21.096 174.374 21.096C173.83 21.096 173.334 20.956 172.886 20.676C172.438 20.388 172.082 19.984 171.818 19.464C171.562 18.936 171.434 18.328 171.434 17.64ZM176.45 17.652C176.45 17.14 176.306 16.736 176.018 16.44C175.738 16.144 175.394 15.996 174.986 15.996C174.578 15.996 174.23 16.144 173.942 16.44C173.662 16.728 173.522 17.128 173.522 17.64C173.522 18.152 173.662 18.56 173.942 18.864C174.23 19.16 174.578 19.308 174.986 19.308C175.394 19.308 175.738 19.16 176.018 18.864C176.306 18.568 176.45 18.164 176.45 17.652ZM181.906 19.308H184.81V21H179.614V19.368L182.398 15.996H179.638V14.304H184.75V15.936L181.906 19.308ZM192.251 17.544C192.251 17.736 192.239 17.936 192.215 18.144H187.571C187.603 18.56 187.735 18.88 187.967 19.104C188.207 19.32 188.499 19.428 188.843 19.428C189.355 19.428 189.711 19.212 189.911 18.78H192.095C191.983 19.22 191.779 19.616 191.483 19.968C191.195 20.32 190.831 20.596 190.391 20.796C189.951 20.996 189.459 21.096 188.915 21.096C188.259 21.096 187.675 20.956 187.163 20.676C186.651 20.396 186.251 19.996 185.963 19.476C185.675 18.956 185.531 18.348 185.531 17.652C185.531 16.956 185.671 16.348 185.951 15.828C186.239 15.308 186.639 14.908 187.151 14.628C187.663 14.348 188.251 14.208 188.915 14.208C189.563 14.208 190.139 14.344 190.643 14.616C191.147 14.888 191.539 15.276 191.819 15.78C192.107 16.284 192.251 16.872 192.251 17.544ZM190.151 17.004C190.151 16.652 190.031 16.372 189.791 16.164C189.551 15.956 189.251 15.852 188.891 15.852C188.547 15.852 188.255 15.952 188.015 16.152C187.783 16.352 187.639 16.636 187.583 17.004H190.151ZM195.386 15.42C195.626 15.052 195.926 14.764 196.286 14.556C196.646 14.34 197.046 14.232 197.486 14.232V16.404H196.922C196.41 16.404 196.026 16.516 195.77 16.74C195.514 16.956 195.386 17.34 195.386 17.892V21H193.334V14.304H195.386V15.42ZM200.602 17.64C200.602 16.952 200.73 16.348 200.986 15.828C201.25 15.308 201.606 14.908 202.054 14.628C202.502 14.348 203.002 14.208 203.554 14.208C203.994 14.208 204.394 14.3 204.754 14.484C205.122 14.668 205.41 14.916 205.618 15.228V12.12H207.67V21H205.618V20.04C205.426 20.36 205.15 20.616 204.79 20.808C204.438 21 204.026 21.096 203.554 21.096C203.002 21.096 202.502 20.956 202.054 20.676C201.606 20.388 201.25 19.984 200.986 19.464C200.73 18.936 200.602 18.328 200.602 17.64ZM205.618 17.652C205.618 17.14 205.474 16.736 205.186 16.44C204.906 16.144 204.562 15.996 204.154 15.996C203.746 15.996 203.398 16.144 203.11 16.44C202.83 16.728 202.69 17.128 202.69 17.64C202.69 18.152 202.83 18.56 203.11 18.864C203.398 19.16 203.746 19.308 204.154 19.308C204.562 19.308 204.906 19.16 205.186 18.864C205.474 18.568 205.618 18.164 205.618 17.652ZM212.202 21.096C211.546 21.096 210.954 20.956 210.426 20.676C209.906 20.396 209.494 19.996 209.19 19.476C208.894 18.956 208.746 18.348 208.746 17.652C208.746 16.964 208.898 16.36 209.202 15.84C209.506 15.312 209.922 14.908 210.45 14.628C210.978 14.348 211.57 14.208 212.226 14.208C212.882 14.208 213.474 14.348 214.002 14.628C214.53 14.908 214.946 15.312 215.25 15.84C215.554 16.36 215.706 16.964 215.706 17.652C215.706 18.34 215.55 18.948 215.238 19.476C214.934 19.996 214.514 20.396 213.978 20.676C213.45 20.956 212.858 21.096 212.202 21.096ZM212.202 19.32C212.594 19.32 212.926 19.176 213.198 18.888C213.478 18.6 213.618 18.188 213.618 17.652C213.618 17.116 213.482 16.704 213.21 16.416C212.946 16.128 212.618 15.984 212.226 15.984C211.826 15.984 211.494 16.128 211.23 16.416C210.966 16.696 210.834 17.108 210.834 17.652C210.834 18.188 210.962 18.6 211.218 18.888C211.482 19.176 211.81 19.32 212.202 19.32ZM226.407 14.304L224.595 21H222.327L221.271 16.656L220.179 21H217.923L216.099 14.304H218.151L219.099 19.092L220.227 14.304H222.399L223.539 19.068L224.475 14.304H226.407ZM231.269 14.232C232.053 14.232 232.677 14.488 233.141 15C233.613 15.504 233.849 16.2 233.849 17.088V21H231.809V17.364C231.809 16.916 231.693 16.568 231.461 16.32C231.229 16.072 230.917 15.948 230.525 15.948C230.133 15.948 229.821 16.072 229.589 16.32C229.357 16.568 229.241 16.916 229.241 17.364V21H227.189V14.304H229.241V15.192C229.449 14.896 229.729 14.664 230.081 14.496C230.433 14.32 230.829 14.232 231.269 14.232ZM237.327 12.12V21H235.275V12.12H237.327ZM241.862 21.096C241.206 21.096 240.614 20.956 240.086 20.676C239.566 20.396 239.154 19.996 238.85 19.476C238.554 18.956 238.406 18.348 238.406 17.652C238.406 16.964 238.558 16.36 238.862 15.84C239.166 15.312 239.582 14.908 240.11 14.628C240.638 14.348 241.23 14.208 241.886 14.208C242.542 14.208 243.134 14.348 243.662 14.628C244.19 14.908 244.606 15.312 244.91 15.84C245.214 16.36 245.366 16.964 245.366 17.652C245.366 18.34 245.21 18.948 244.898 19.476C244.594 19.996 244.174 20.396 243.638 20.676C243.11 20.956 242.518 21.096 241.862 21.096ZM241.862 19.32C242.254 19.32 242.586 19.176 242.858 18.888C243.138 18.6 243.278 18.188 243.278 17.652C243.278 17.116 243.142 16.704 242.87 16.416C242.606 16.128 242.278 15.984 241.886 15.984C241.486 15.984 241.154 16.128 240.89 16.416C240.626 16.696 240.494 17.108 240.494 17.652C240.494 18.188 240.622 18.6 240.878 18.888C241.142 19.176 241.47 19.32 241.862 19.32ZM246.047 17.64C246.047 16.952 246.175 16.348 246.431 15.828C246.695 15.308 247.051 14.908 247.499 14.628C247.947 14.348 248.447 14.208 248.999 14.208C249.471 14.208 249.883 14.304 250.235 14.496C250.595 14.688 250.871 14.94 251.063 15.252V14.304H253.115V21H251.063V20.052C250.863 20.364 250.583 20.616 250.223 20.808C249.871 21 249.459 21.096 248.987 21.096C248.443 21.096 247.947 20.956 247.499 20.676C247.051 20.388 246.695 19.984 246.431 19.464C246.175 18.936 246.047 18.328 246.047 17.64ZM251.063 17.652C251.063 17.14 250.919 16.736 250.631 16.44C250.351 16.144 250.007 15.996 249.599 15.996C249.191 15.996 248.843 16.144 248.555 16.44C248.275 16.728 248.135 17.128 248.135 17.64C248.135 18.152 248.275 18.56 248.555 18.864C248.843 19.16 249.191 19.308 249.599 19.308C250.007 19.308 250.351 19.16 250.631 18.864C250.919 18.568 251.063 18.164 251.063 17.652ZM254.191 17.64C254.191 16.952 254.319 16.348 254.575 15.828C254.839 15.308 255.195 14.908 255.643 14.628C256.091 14.348 256.591 14.208 257.143 14.208C257.583 14.208 257.983 14.3 258.343 14.484C258.711 14.668 258.999 14.916 259.207 15.228V12.12H261.259V21H259.207V20.04C259.015 20.36 258.739 20.616 258.379 20.808C258.027 21 257.615 21.096 257.143 21.096C256.591 21.096 256.091 20.956 255.643 20.676C255.195 20.388 254.839 19.984 254.575 19.464C254.319 18.936 254.191 18.328 254.191 17.64ZM259.207 17.652C259.207 17.14 259.063 16.736 258.775 16.44C258.495 16.144 258.151 15.996 257.743 15.996C257.335 15.996 256.987 16.144 256.699 16.44C256.419 16.728 256.279 17.128 256.279 17.64C256.279 18.152 256.419 18.56 256.699 18.864C256.987 19.16 257.335 19.308 257.743 19.308C258.151 19.308 258.495 19.16 258.775 18.864C259.063 18.568 259.207 18.164 259.207 17.652Z" fill="#2196F3"/>
<rect width="30" height="30" rx="5" fill="#2196F3"/>
<g clip-path="url(#clip0_2684_733)">
<path d="M14.5272 22.9902C8.55041 22.5635 5.05885 15.9127 8.1465 10.836C8.39546 10.4267 8.44146 10.2848 8.44666 9.91036C8.46203 8.80454 9.7702 7.51211 10.039 8.33714C10.125 8.60092 10.125 8.60092 10.488 8.33679C13.896 5.85696 19.1738 6.94829 21.4807 10.6098C21.8516 11.1987 21.8516 11.1987 22.0354 11.0165C22.7126 10.3451 23.3343 12.1062 22.7957 13.1703C22.644 13.4703 22.6383 13.5338 22.7181 14.0487C23.3708 18.2638 19.957 22.6086 15.7369 22.9336C15.4448 22.956 15.121 22.9828 15.0173 22.9931C14.9137 23.0033 14.6931 23.002 14.5272 22.9902ZM15.4781 22.4634C15.8092 22.418 15.8092 22.418 15.5055 22.0979C14.302 20.8298 15.3113 18.9877 17.0602 19.2605C17.9067 19.3925 18.4027 19.3712 18.4206 19.2021C18.4259 19.1514 18.4232 18.9527 18.4146 18.7603C18.4019 18.4786 18.4381 18.3633 18.6008 18.1676C18.8026 17.9246 18.8026 17.9246 18.5125 17.8004C18.2223 17.6763 18.2223 17.6763 18.5515 17.5333C18.8369 17.4093 18.8735 17.3676 18.8272 17.2191C18.6828 16.7559 18.6973 16.6705 18.9646 16.4092C19.2273 16.1524 19.2273 16.1524 18.7792 15.612C18.2387 14.9599 18.2113 14.865 18.3245 14.0338C18.5244 12.5657 17.9721 11.2049 17.1765 11.2049C16.3765 11.2049 15.105 10.1961 15.4369 9.8247C16.012 9.18104 17.2046 9.53753 17.6684 10.4917C17.8061 10.775 18.0307 11.1287 18.1675 11.2777C18.8566 12.0282 19.1665 13.4165 18.8933 14.5297C18.867 14.6371 18.9782 14.8452 19.2552 15.2067C19.9263 16.0825 19.9706 16.3495 19.4967 16.664C19.3125 16.7862 19.2546 17.0387 19.3912 17.1242C19.4901 17.1861 19.4885 17.5216 19.3889 17.5839C19.3435 17.6124 19.3316 17.7429 19.3604 17.8982C19.4001 18.1129 19.3761 18.1999 19.2352 18.3518C19.0942 18.5039 19.0646 18.6113 19.0805 18.9139C19.1299 19.8582 18.4337 20.1727 16.8683 19.913C15.6845 19.7167 15.1568 21.376 16.2058 21.9965C17.5926 22.8168 22.6154 18.8444 21.3579 17.9218C20.5843 17.3542 20.3809 16.141 20.969 15.602C21.1818 15.4069 21.7568 15.8485 22.0501 16.4322C22.2203 16.7709 22.3593 15.8272 22.3191 14.6056C22.2886 13.6757 22.2886 13.6757 22.0098 13.3311C21.6343 12.867 21.4795 12.4113 21.5385 11.9431C21.7211 10.4937 17.8404 7.35035 16.2407 7.65178C15.1787 7.85188 14.1558 8.7006 13.9646 9.54028C13.7024 10.6915 14.2471 12.5609 14.9783 13.0192C16.1669 13.7643 16.5785 15.5568 15.4924 15.2585C14.722 15.047 14.3767 14.5492 14.3758 13.649C14.3753 13.1472 14.3481 13.0338 14.1569 12.7345C13.5794 11.8312 13.4172 11.2854 13.4183 10.2501C13.419 9.56274 13.419 9.56274 13.0428 9.98282C12.2844 10.8295 12.0329 11.6547 12.117 13.0202C12.1766 13.9891 12.1394 14.0918 11.4557 14.8431C11.1522 15.1765 11.1522 15.1765 11.4714 15.5274C11.7533 15.837 11.7844 15.9064 11.7365 16.1193C11.6289 16.5978 11.6442 16.6364 11.9967 16.7775C12.3319 16.9116 12.3319 16.9116 12.0196 17.0936C11.7072 17.2757 11.7072 17.2757 11.8729 17.4543C12.0083 17.6003 12.0401 17.7292 12.0465 18.1594C12.0586 18.9609 12.2359 19.0739 13.1738 18.8776C13.9871 18.7075 14.1121 18.6378 14.1141 18.3531C14.1177 17.84 14.4591 17.3391 14.9447 17.1346C16.698 16.3959 16.3838 18.1593 14.6233 18.9385C12.5359 19.8623 11.3768 19.6661 11.3603 18.3863C11.3555 18.0173 11.3206 17.8961 11.1732 17.7372C10.9696 17.5177 10.8754 16.5205 11.0306 16.2269C11.0972 16.1009 11.0658 16.0301 10.8392 15.795C10.4451 15.3862 10.4655 15.1265 10.9317 14.6182C11.6336 13.8532 11.6598 13.7909 11.5596 13.1242C11.283 11.2837 11.8944 9.91794 13.3733 9.07261C13.6203 8.93146 13.885 8.69646 14.0344 8.48572C14.1714 8.29241 14.4864 7.98306 14.7342 7.79829C15.1848 7.46233 15.1848 7.46233 14.6624 7.46233C12.9112 7.46233 10.2857 8.61693 10.0556 9.48822C9.94026 9.92515 9.69707 10.1958 9.16784 10.4763C7.38747 11.4197 6.92922 15.9894 8.35374 18.5945C8.68144 19.1938 8.69544 19.1905 8.51966 18.5563C8.33024 17.8729 8.26568 16.9871 8.36952 16.4967C8.43675 16.1791 8.43133 16.0398 8.34169 15.7825C8.05216 14.9514 8.42847 14.2076 9.3236 13.8418C9.87187 13.6178 9.92392 13.6795 9.86977 14.4891C9.82824 15.1101 9.62084 15.5345 9.18028 15.9002C8.25218 16.6704 8.79431 19.1549 10.2183 20.6572C11.4075 21.9118 13.7179 22.7052 15.4781 22.4634ZM14.9871 18.2166C15.3212 17.9047 15.5947 17.4926 15.5188 17.4156C15.3976 17.2929 14.8445 17.6745 14.686 17.9902C14.375 18.6098 14.4807 18.6893 14.9871 18.2166ZM21.7457 17.2429C21.7098 16.6905 21.1421 15.734 21.1144 16.1792C21.0753 16.8054 21.139 17.0759 21.3989 17.3888C21.6564 17.6988 21.7721 17.65 21.7457 17.2429ZM9.11567 15.2523C9.51176 14.5874 9.54391 14.1214 9.17689 14.365C8.92369 14.533 8.75984 14.8727 8.70475 15.3437C8.64576 15.8483 8.77827 15.8188 9.11567 15.2523ZM15.6549 14.6992C15.5646 14.3968 15.2296 13.8151 15.0442 13.6386C14.5608 13.1787 14.6841 14.0752 15.1721 14.5696C15.5109 14.9126 15.7367 14.9733 15.6549 14.6992ZM22.485 12.6487C22.6617 11.9842 22.3601 11.0212 22.1404 11.5481C21.9785 11.9364 21.9775 12.4834 22.1381 12.7981C22.2889 13.0934 22.3767 13.0556 22.4849 12.6487H22.485ZM17.2893 10.6129C17.0841 10.2274 16.6348 9.98282 16.1319 9.98282C15.8235 9.98282 15.8235 9.98282 15.9671 10.1463C16.2947 10.5192 17.4579 10.9297 17.2893 10.6129ZM9.48547 9.59801C9.72236 9.23545 9.81608 8.68439 9.64085 8.68439C9.376 8.68439 8.83361 9.62076 8.83361 10.078C8.83361 10.2846 9.22525 9.99626 9.48547 9.59801Z" fill="white"/>
</g>
<path d="M43.51 15.988C44.0607 16.0907 44.5133 16.366 44.868 16.814C45.2227 17.262 45.4 17.7753 45.4 18.354C45.4 18.8767 45.2693 19.3387 45.008 19.74C44.756 20.132 44.3873 20.44 43.902 20.664C43.4167 20.888 42.8427 21 42.18 21H37.966V11.228H41.998C42.6607 11.228 43.23 11.3353 43.706 11.55C44.1913 11.7647 44.5553 12.0633 44.798 12.446C45.05 12.8287 45.176 13.2627 45.176 13.748C45.176 14.3173 45.022 14.7933 44.714 15.176C44.4153 15.5587 44.014 15.8293 43.51 15.988ZM39.926 15.26H41.718C42.1847 15.26 42.544 15.1573 42.796 14.952C43.048 14.7373 43.174 14.434 43.174 14.042C43.174 13.65 43.048 13.3467 42.796 13.132C42.544 12.9173 42.1847 12.81 41.718 12.81H39.926V15.26ZM41.9 19.404C42.376 19.404 42.7447 19.292 43.006 19.068C43.2767 18.844 43.412 18.5267 43.412 18.116C43.412 17.696 43.272 17.3693 42.992 17.136C42.712 16.8933 42.334 16.772 41.858 16.772H39.926V19.404H41.9ZM48.9221 14.448C49.1741 14.0373 49.5008 13.7153 49.9021 13.482C50.3128 13.2487 50.7794 13.132 51.3021 13.132V15.19H50.7841C50.1681 15.19 49.7014 15.3347 49.3841 15.624C49.0761 15.9133 48.9221 16.4173 48.9221 17.136V21H46.9621V13.244H48.9221V14.448ZM52.1182 17.094C52.1182 16.31 52.2722 15.6147 52.5802 15.008C52.8976 14.4013 53.3223 13.9347 53.8543 13.608C54.3956 13.2813 54.9976 13.118 55.6603 13.118C56.2389 13.118 56.7429 13.2347 57.1723 13.468C57.6109 13.7013 57.9609 13.9953 58.2223 14.35V13.244H60.1963V21H58.2223V19.866C57.9703 20.23 57.6203 20.5333 57.1723 20.776C56.7336 21.0093 56.2249 21.126 55.6463 21.126C54.9929 21.126 54.3956 20.958 53.8543 20.622C53.3223 20.286 52.8976 19.8147 52.5802 19.208C52.2722 18.592 52.1182 17.8873 52.1182 17.094ZM58.2223 17.122C58.2223 16.646 58.1289 16.24 57.9423 15.904C57.7556 15.5587 57.5036 15.2973 57.1863 15.12C56.8689 14.9333 56.5283 14.84 56.1643 14.84C55.8003 14.84 55.4643 14.9287 55.1562 15.106C54.8483 15.2833 54.5963 15.5447 54.4003 15.89C54.2136 16.226 54.1203 16.6273 54.1203 17.094C54.1203 17.5607 54.2136 17.9713 54.4003 18.326C54.5963 18.6713 54.8483 18.9373 55.1562 19.124C55.4736 19.3107 55.8096 19.404 56.1643 19.404C56.5283 19.404 56.8689 19.3153 57.1863 19.138C57.5036 18.9513 57.7556 18.69 57.9423 18.354C58.1289 18.0087 58.2223 17.598 58.2223 17.122ZM63.1045 12.32C62.7592 12.32 62.4699 12.2127 62.2365 11.998C62.0125 11.774 61.9005 11.4987 61.9005 11.172C61.9005 10.8453 62.0125 10.5747 62.2365 10.36C62.4699 10.136 62.7592 10.024 63.1045 10.024C63.4499 10.024 63.7345 10.136 63.9585 10.36C64.1919 10.5747 64.3085 10.8453 64.3085 11.172C64.3085 11.4987 64.1919 11.774 63.9585 11.998C63.7345 12.2127 63.4499 12.32 63.1045 12.32ZM64.0705 13.244V21H62.1105V13.244H64.0705ZM70.305 13.132C71.229 13.132 71.9757 13.426 72.545 14.014C73.1143 14.5927 73.399 15.4047 73.399 16.45V21H71.439V16.716C71.439 16.1 71.285 15.6287 70.977 15.302C70.669 14.966 70.249 14.798 69.717 14.798C69.1757 14.798 68.7463 14.966 68.429 15.302C68.121 15.6287 67.967 16.1 67.967 16.716V21H66.007V13.244H67.967V14.21C68.2283 13.874 68.5597 13.6127 68.961 13.426C69.3717 13.23 69.8197 13.132 70.305 13.132ZM86.7048 11.228V21H84.7448V16.842H80.5588V21H78.5988V11.228H80.5588V15.246H84.7448V11.228H86.7048ZM95.844 16.954C95.844 17.234 95.8253 17.486 95.788 17.71H90.118C90.1646 18.27 90.3606 18.7087 90.706 19.026C91.0513 19.3433 91.476 19.502 91.98 19.502C92.708 19.502 93.226 19.1893 93.534 18.564H95.648C95.424 19.3107 94.9946 19.9267 94.36 20.412C93.7253 20.888 92.946 21.126 92.022 21.126C91.2753 21.126 90.6033 20.9627 90.006 20.636C89.418 20.3 88.956 19.8287 88.62 19.222C88.2933 18.6153 88.13 17.9153 88.13 17.122C88.13 16.3193 88.2933 15.6147 88.62 15.008C88.9466 14.4013 89.404 13.9347 89.992 13.608C90.58 13.2813 91.2566 13.118 92.022 13.118C92.7593 13.118 93.4173 13.2767 93.996 13.594C94.584 13.9113 95.0366 14.364 95.354 14.952C95.6806 15.5307 95.844 16.198 95.844 16.954ZM93.814 16.394C93.8046 15.89 93.6226 15.4887 93.268 15.19C92.9133 14.882 92.4793 14.728 91.966 14.728C91.4806 14.728 91.07 14.8773 90.734 15.176C90.4073 15.4653 90.2066 15.8713 90.132 16.394H93.814ZM99.2346 10.64V21H97.2746V10.64H99.2346ZM103.131 14.364C103.383 14.0093 103.728 13.7153 104.167 13.482C104.615 13.2393 105.124 13.118 105.693 13.118C106.356 13.118 106.953 13.2813 107.485 13.608C108.026 13.9347 108.451 14.4013 108.759 15.008C109.076 15.6053 109.235 16.3007 109.235 17.094C109.235 17.8873 109.076 18.592 108.759 19.208C108.451 19.8147 108.026 20.286 107.485 20.622C106.953 20.958 106.356 21.126 105.693 21.126C105.124 21.126 104.62 21.0093 104.181 20.776C103.752 20.5427 103.402 20.2487 103.131 19.894V24.696H101.171V13.244H103.131V14.364ZM107.233 17.094C107.233 16.6273 107.135 16.226 106.939 15.89C106.752 15.5447 106.5 15.2833 106.183 15.106C105.875 14.9287 105.539 14.84 105.175 14.84C104.82 14.84 104.484 14.9333 104.167 15.12C103.859 15.2973 103.607 15.5587 103.411 15.904C103.224 16.2493 103.131 16.6553 103.131 17.122C103.131 17.5887 103.224 17.9947 103.411 18.34C103.607 18.6853 103.859 18.9513 104.167 19.138C104.484 19.3153 104.82 19.404 105.175 19.404C105.539 19.404 105.875 19.3107 106.183 19.124C106.5 18.9373 106.752 18.6713 106.939 18.326C107.135 17.9807 107.233 17.57 107.233 17.094Z" fill="#6E6E6E"/>
<defs>
<clipPath id="clip0_2684_733">
<rect x="7" y="7" width="16" height="16" rx="5" fill="white"/>
</clipPath>
</defs>
</svg>
